<?xml version="1.0" standalone="no"?>
<!DOCTYPE svg PUBLIC "-//W3C//DTD SVG 20010904//EN"
 "http://www.w3.org/TR/2001/REC-SVG-20010904/DTD/svg10.dtd">
<svg version="1.0" xmlns="http://www.w3.org/2000/svg"
 width="225.000000pt" height="225.000000pt" viewBox="0 0 225.000000 225.000000"
 preserveAspectRatio="xMidYMid meet">
<metadata>
Created by potrace 1.11, written by Peter Selinger 2001-2013
</metadata>
<g transform="translate(0.000000,225.000000) scale(0.100000,-0.100000)"
fill="#000000" stroke="none">
<path d="M95 2203 l95 -4 0 -164 0 -164 -95 -4 -95 -3 97 0 98 1 0 170 0 170
-98 1 -97 0 95 -3z"/>
<path d="M235 2197 c-3 -7 -4 -85 -3 -172 l3 -160 170 0 170 0 0 170 0 170
-168 3 c-131 2 -169 0 -172 -11z m335 -162 l0 -165 -165 0 -165 0 0 165 0 165
165 0 165 0 0 -165z"/>
<path d="M605 2197 c-3 -7 -4 -85 -3 -172 l3 -160 170 0 170 0 0 170 0 170
-168 3 c-131 2 -169 0 -172 -11z m335 -162 l0 -165 -165 0 -165 0 0 165 0 165
165 0 165 0 0 -165z"/>
<path d="M985 2197 c-3 -7 -4 -85 -3 -172 l3 -160 170 0 170 0 0 170 0 170
-168 3 c-131 2 -169 0 -172 -11z m335 -162 l0 -165 -165 0 -165 0 0 165 0 165
165 0 165 0 0 -165z"/>
<path d="M1355 2197 c-3 -7 -4 -85 -3 -172 l3 -160 170 0 170 0 0 170 0 170
-168 3 c-131 2 -169 0 -172 -11z m335 -162 l0 -165 -165 0 -165 0 0 165 0 165
165 0 165 0 0 -165z"/>
<path d="M1735 2197 c-3 -7 -4 -85 -3 -172 l3 -160 170 0 170 0 0 170 0 170
-168 3 c-131 2 -169 0 -172 -11z m335 -162 l0 -165 -165 0 -165 0 0 165 0 165
165 0 165 0 0 -165z"/>
<path d="M2104 2197 c-2 -7 -3 -85 -2 -172 l3 -160 70 -1 70 0 -67 3 -68 4 0
164 0 164 73 4 72 3 -73 2 c-52 1 -74 -2 -78 -11z"/>
<path d="M95 1833 l95 -4 0 -164 0 -164 -95 -4 -95 -3 97 0 98 1 0 170 0 170
-98 1 -97 0 95 -3z"/>
<path d="M234 1827 c-2 -7 -3 -85 -2 -172 l3 -160 170 0 170 0 0 163 1 162 -3
-160 -3 -160 -165 0 -165 0 0 165 0 165 163 3 162 3 -163 2 c-125 1 -164 -1
-168 -11z"/>
<path d="M778 1833 l162 -3 0 -165 0 -165 -165 0 -165 0 -3 160 -3 160 1 -162
0 -163 170 0 170 0 0 170 0 170 -165 0 -165 1 163 -3z"/>
<path d="M1528 1833 l162 -3 0 -165 0 -165 -165 0 -165 0 -3 160 -3 160 1
-162 0 -163 170 0 170 0 0 170 0 170 -165 0 -165 1 163 -3z"/>
<path d="M1734 1827 c-2 -7 -3 -85 -2 -172 l3 -160 170 0 170 0 0 163 1 162
-3 -160 -3 -160 -165 0 -165 0 0 165 0 165 163 3 162 3 -163 2 c-125 1 -164
-1 -168 -11z"/>
<path d="M2147 1833 c18 -2 50 -2 70 0 21 2 7 4 -32 4 -38 0 -55 -2 -38 -4z"/>
<path d="M990 1665 l0 -165 165 0 165 0 0 165 0 165 -165 0 -165 0 0 -165z"/>
<path d="M2105 1655 l0 -160 75 -1 75 -1 -72 4 -73 4 -3 157 -3 157 1 -160z"/>
<path d="M95 1453 l95 -4 0 -164 0 -164 -95 -4 -95 -3 97 0 98 1 0 170 0 170
-98 1 -97 0 95 -3z"/>
<path d="M235 1447 c-3 -7 -4 -85 -3 -172 l3 -160 170 0 170 0 0 170 0 170
-168 3 c-131 2 -169 0 -172 -11z m335 -162 l0 -165 -165 0 -165 0 0 165 0 165
165 0 165 0 0 -165z"/>
<path d="M605 1447 c-3 -7 -4 -85 -3 -172 l3 -160 170 0 170 0 0 170 0 170
-168 3 c-131 2 -169 0 -172 -11z m335 -162 l0 -165 -165 0 -165 0 0 165 0 165
165 0 165 0 0 -165z"/>
<path d="M985 1447 c-3 -7 -4 -85 -3 -172 l3 -160 170 0 170 0 0 170 0 170
-168 3 c-131 2 -169 0 -172 -11z m335 -162 l0 -165 -165 0 -165 0 0 165 0 165
165 0 165 0 0 -165z"/>
<path d="M1735 1447 c-3 -7 -4 -85 -3 -172 l3 -160 170 0 170 0 0 170 0 170
-168 3 c-131 2 -169 0 -172 -11z m335 -162 l0 -165 -165 0 -165 0 0 165 0 165
165 0 165 0 0 -165z"/>
<path d="M2104 1447 c-2 -7 -3 -85 -2 -172 l3 -160 70 -1 70 0 -67 3 -68 4 0
164 0 164 73 4 72 3 -73 2 c-52 1 -74 -2 -78 -11z"/>
<path d="M1360 1285 l0 -165 165 0 165 0 0 165 0 165 -165 0 -165 0 0 -165z"/>
<path d="M95 1083 l95 -4 0 -164 0 -164 -95 -4 -95 -3 97 0 98 1 0 170 0 170
-98 1 -97 0 95 -3z"/>
<path d="M234 1077 c-2 -7 -3 -85 -2 -172 l3 -160 170 0 170 0 0 163 1 162 -3
-160 -3 -160 -165 0 -165 0 0 165 0 165 163 3 162 3 -163 2 c-125 1 -164 -1
-168 -11z"/>
<path d="M1734 1077 c-2 -7 -3 -85 -2 -172 l3 -160 170 0 170 0 0 163 1 162
-3 -160 -3 -160 -165 0 -165 0 0 165 0 165 163 3 162 3 -163 2 c-125 1 -164
-1 -168 -11z"/>
<path d="M2147 1083 c18 -2 50 -2 70 0 21 2 7 4 -32 4 -38 0 -55 -2 -38 -4z"/>
<path d="M610 915 l0 -165 165 0 165 0 0 165 0 165 -165 0 -165 0 0 -165z"/>
<path d="M990 915 l0 -165 165 0 165 0 0 165 0 165 -165 0 -165 0 0 -165z"/>
<path d="M1360 915 l0 -165 165 0 165 0 0 165 0 165 -165 0 -165 0 0 -165z"/>
<path d="M2105 905 l0 -160 75 -1 75 -1 -72 4 -73 4 -3 157 -3 157 1 -160z"/>
<path d="M95 703 l95 -4 0 -164 0 -164 -95 -4 -95 -3 97 0 98 1 0 170 0 170
-98 1 -97 0 95 -3z"/>
<path d="M235 697 c-3 -7 -4 -85 -3 -172 l3 -160 170 0 170 0 0 170 0 170
-168 3 c-131 2 -169 0 -172 -11z m335 -162 l0 -165 -165 0 -165 0 0 165 0 165
165 0 165 0 0 -165z"/>
<path d="M605 697 c-3 -7 -4 -85 -3 -172 l3 -160 170 0 170 0 0 170 0 170
-168 3 c-131 2 -169 0 -172 -11z m335 -162 l0 -165 -165 0 -165 0 0 165 0 165
165 0 165 0 0 -165z"/>
<path d="M985 697 c-3 -7 -4 -85 -3 -172 l3 -160 170 0 170 0 0 170 0 170
-168 3 c-131 2 -169 0 -172 -11z m335 -162 l0 -165 -165 0 -165 0 0 165 0 165
165 0 165 0 0 -165z"/>
<path d="M1355 697 c-3 -7 -4 -85 -3 -172 l3 -160 170 0 170 0 0 170 0 170
-168 3 c-131 2 -169 0 -172 -11z m335 -162 l0 -165 -165 0 -165 0 0 165 0 165
165 0 165 0 0 -165z"/>
<path d="M1735 697 c-3 -7 -4 -85 -3 -172 l3 -160 170 0 170 0 0 170 0 170
-168 3 c-131 2 -169 0 -172 -11z m335 -162 l0 -165 -165 0 -165 0 0 165 0 165
165 0 165 0 0 -165z"/>
<path d="M2104 697 c-2 -7 -3 -85 -2 -172 l3 -160 70 -1 70 0 -67 3 -68 4 0
164 0 164 73 4 72 3 -73 2 c-52 1 -74 -2 -78 -11z"/>
<path d="M95 333 l95 -4 3 -164 3 -165 -1 167 0 168 -98 1 -97 0 95 -3z"/>
<path d="M234 327 c-2 -7 -3 -85 -1 -172 l3 -160 2 167 2 168 163 3 162 3
-163 2 c-125 1 -164 -1 -168 -11z"/>
<path d="M777 333 l163 -3 3 -165 3 -165 -1 167 0 168 -165 0 -165 1 162 -3z"/>
<path d="M984 327 c-2 -7 -3 -85 -1 -172 l3 -160 2 167 2 168 163 3 162 3
-163 2 c-125 1 -164 -1 -168 -11z"/>
<path d="M1527 333 l163 -3 3 -165 3 -165 -1 167 0 168 -165 0 -165 1 162 -3z"/>
<path d="M1734 327 c-2 -7 -3 -85 -1 -172 l3 -160 2 167 2 168 163 3 162 3
-163 2 c-125 1 -164 -1 -168 -11z"/>
<path d="M2147 333 c18 -2 50 -2 70 0 21 2 7 4 -32 4 -38 0 -55 -2 -38 -4z"/>
<path d="M574 160 c0 -91 2 -128 3 -82 2 45 2 119 0 165 -1 45 -3 8 -3 -83z"/>
<path d="M604 160 c0 -91 2 -128 3 -82 2 45 2 119 0 165 -1 45 -3 8 -3 -83z"/>
<path d="M1324 160 c0 -91 2 -128 3 -82 2 45 2 119 0 165 -1 45 -3 8 -3 -83z"/>
<path d="M1354 160 c0 -91 2 -128 3 -82 2 45 2 119 0 165 -1 45 -3 8 -3 -83z"/>
<path d="M2074 160 c0 -91 2 -128 3 -82 2 45 2 119 0 165 -1 45 -3 8 -3 -83z"/>
<path d="M2104 160 c0 -91 2 -128 3 -82 2 45 2 119 0 165 -1 45 -3 8 -3 -83z"/>
</g>
</svg>
